<?xml version="1.0"?>
<svg xmlns="http://www.w3.org/2000/svg" xmlns:xlink="http://www.w3.org/1999/xlink" xmlns:svgjs="http://svgjs.com/svgjs" version="1.1" width="512" height="512" x="0" y="0" viewBox="0 0 480 480" style="enable-background:new 0 0 512 512" xml:space="preserve" class=""><g>
<g xmlns="http://www.w3.org/2000/svg">
	<g>
		<rect x="280" y="264" width="16" height="16" fill="#0be8ff" data-original="#000000" style="" class=""/>
	</g>
</g>
<g xmlns="http://www.w3.org/2000/svg">
	<g>
		<rect x="272" y="176" width="40" height="16" fill="#0be8ff" data-original="#000000" style="" class=""/>
	</g>
</g>
<g xmlns="http://www.w3.org/2000/svg">
	<g>
		<rect x="336" y="176" width="40" height="16" fill="#0be8ff" data-original="#000000" style="" class=""/>
	</g>
</g>
<g xmlns="http://www.w3.org/2000/svg">
	<g>
		<rect x="400" y="176" width="40" height="16" fill="#0be8ff" data-original="#000000" style="" class=""/>
	</g>
</g>
<g xmlns="http://www.w3.org/2000/svg">
	<g>
		<path d="M437.656,90.344l-48-48l-11.312,11.312L420.688,96l-42.344,42.344l11.312,11.312l48-48    C440.784,98.528,440.784,93.472,437.656,90.344z" fill="#0be8ff" data-original="#000000" style="" class=""/>
	</g>
</g>
<g xmlns="http://www.w3.org/2000/svg">
	<g>
		<path d="M293.656,53.656l-11.312-11.312l-48,48c-3.128,3.128-3.128,8.184,0,11.312l48,48l11.312-11.312L251.312,96L293.656,53.656    z" fill="#0be8ff" data-original="#000000" style="" class=""/>
	</g>
</g>
<g xmlns="http://www.w3.org/2000/svg">
	<g>
		
			<rect x="285.903" y="91.955" transform="matrix(0.4791 -0.8778 0.8778 0.4791 87.2887 346.9956)" width="100.188" height="16.001" fill="#0be8ff" data-original="#000000" style="" class=""/>
	</g>
</g>
<g xmlns="http://www.w3.org/2000/svg">
	<g>
		<path d="M480,272V48c0-22.056-17.944-40-40-40H128C83.888,8,48,43.888,48,88c0,26.408,12.912,49.792,32.696,64.368    C35.584,156.104,0,193.944,0,240v7.68V464v0.768h0.152C0.56,468.808,3.856,472,8,472h184c4.416,0,8-3.584,8-8V351.16    c10.168,10.384,24.344,16.84,40,16.84h100h124v32h-32v16h16v56h16v-56h8c4.416,0,8-3.584,8-8v-48c0-4.416-3.584-8-8-8H369.904    c3.84-5.728,6.096-12.6,6.096-20c0-7.4-2.256-14.272-6.096-20H440C462.056,312,480,294.056,480,272z M440,24    c13.232,0,24,10.768,24,24v184H256v8c0-46.056-35.584-83.896-80.696-87.632C195.088,137.792,208,114.408,208,88    c0-26.184-12.704-49.4-32.2-64H440z M64,88c0-35.288,28.712-64,64-64s64,28.712,64,64c0,14.872-5.144,28.544-13.688,39.424    C163.384,124.728,152,111.696,152,96h-16c0,19.744,11.984,36.72,29.048,44.088C154.584,147.56,141.816,152,128,152    C92.712,152,64,123.288,64,88z M152,456H16V256l112.344-0.008c7.296-0.304,14.024,2.032,18.608,6.416    c2.304,2.208,5.048,5.912,5.048,11.024V456z M340,352H240c-22.056,0-40-17.944-40-40v-72h-16v216h-16V273.432    c0-8.392-3.544-16.416-9.984-22.576c-7.72-7.4-18.832-11.328-30.016-10.856H16c0-39.696,32.304-72,72-72h80    c39.696,0,72,32.304,72,72v64c0,4.416,3.584,8,8,8h92c11.024,0,20,8.976,20,20S351.024,352,340,352z M340,296h-84v-48h208v24    c0,13.232-10.768,24-24,24H340z" fill="#0be8ff" data-original="#000000" style="" class=""/>
	</g>
</g>
<g xmlns="http://www.w3.org/2000/svg">
</g>
<g xmlns="http://www.w3.org/2000/svg">
</g>
<g xmlns="http://www.w3.org/2000/svg">
</g>
<g xmlns="http://www.w3.org/2000/svg">
</g>
<g xmlns="http://www.w3.org/2000/svg">
</g>
<g xmlns="http://www.w3.org/2000/svg">
</g>
<g xmlns="http://www.w3.org/2000/svg">
</g>
<g xmlns="http://www.w3.org/2000/svg">
</g>
<g xmlns="http://www.w3.org/2000/svg">
</g>
<g xmlns="http://www.w3.org/2000/svg">
</g>
<g xmlns="http://www.w3.org/2000/svg">
</g>
<g xmlns="http://www.w3.org/2000/svg">
</g>
<g xmlns="http://www.w3.org/2000/svg">
</g>
<g xmlns="http://www.w3.org/2000/svg">
</g>
<g xmlns="http://www.w3.org/2000/svg">
</g>
</g></svg>
