<?xml version="1.0"?>
<svg xmlns="http://www.w3.org/2000/svg" xmlns:xlink="http://www.w3.org/1999/xlink" xmlns:svgjs="http://svgjs.com/svgjs" version="1.1" width="512" height="512" x="0" y="0" viewBox="0 0 512 512" style="enable-background:new 0 0 512 512" xml:space="preserve" class=""><g><g xmlns="http://www.w3.org/2000/svg"><path d="m437.688 236.045-7.621-6.667c-20.913-18.3-47.735-28.378-75.525-28.378h-51.568c.264-12.563-4.401-24.195-12.578-32.982 16.84-18.062 16.781-45.964 0-64 27.856-29.876 6.516-79.018-34.396-79.018h-12.004c-5.889-14.08-19.804-24-35.996-24h-50.542c-27.789 0-54.611 10.078-75.524 28.377l-7.622 6.668c-26.714 23.375-53.598 20.955-73.312 20.955v206c20.413 0 46.579-2.462 73.238 20.389 20.773 17.805 47.281 27.611 74.64 27.611h67.351c-11.226 17.795-9.351 41.225 5.374 57.018-16.82 18.078-16.798 45.929.017 63.982-27.788 29.835-6.736 79 34.38 79h107.122c27.359 0 53.867-9.806 74.64-27.611 26.56-22.767 52.811-20.389 73.238-20.389v-206c-20.083 0-46.638 2.385-73.312-20.955zm-190.688-181.045h9c9.374 0 17 7.626 17 17 0 9.402-7.597 17-17 17h-9c0-12.229 0-21.249 0-34zm0 64h9c9.374 0 17 7.626 17 17 0 9.402-7.597 17-17 17h-9zm9 64c9.374 0 17 7.626 17 17s-7.626 17-17 17h-48c-9.374 0-17-7.626-17-17s7.626-17 17-17zm-112-88c4.962 0 9 4.038 9 9 0 22.188 9.105 43.41 26.278 58.836-21.874 16.944-24.555 48.876-5.659 69.164-12.445 13.361-15.894 32.387-9.425 49h-15.317c-20.203 0-39.777-7.241-55.116-20.389-17.748-15.213-39.684-24.587-62.761-26.993v-147.296c23.268-2.54 45.299-12.152 63.066-27.699 11.134-9.742 29.54-27.623 63.392-27.623h50.542c4.962 0 9 4.038 9 9v110.676c-19.472-6.228-34-24.571-34-46.676 0-21.505-17.495-39-39-39h-8v30zm64 186c-9.374 0-17-7.626-17-17s7.626-17 17-17h48c9.374 0 17 7.626 17 17s-7.626 17-17 17c-9.815 0-37.19 0-48 0zm57 38v34h-9c-9.402 0-17-7.597-17-17 0-9.374 7.626-17 17-17zm39 162c-10.82 0-38.168 0-48 0-9.374 0-17-7.626-17-17s7.626-17 17-17h48c9.374 0 17 7.626 17 17s-7.626 17-17 17zm0-64h-48c-9.374 0-17-7.626-17-17s7.626-17 17-17h48c9.374 0 17 7.626 17 17s-7.626 17-17 17zm177 16.618c-23.077 2.407-45.013 11.78-62.762 26.994-26.088 22.361-52.004 20.388-70.433 20.388 6.466-16.602 3.029-35.629-9.425-49 18.929-20.323 16.176-52.251-5.659-69.164 17.177-15.428 26.279-36.652 26.279-58.836 0-4.962 4.038-9 9-9h8v-30h-8c-21.505 0-39 17.495-39 39 0 22.159-14.585 40.466-34 46.676v-60.475c12.099-17.95 10.417-42.057-4.62-58.201 1.332-1.43-6.027-1 64.162-1 20.521 0 40.326 7.442 55.77 20.955l7.621 6.667c17.768 15.547 39.799 25.16 63.067 27.7z" fill="#00fff3" data-original="#000000" style="" class=""/><path d="m424 145h88v30h-88z" fill="#00fff3" data-original="#000000" style="" class=""/><path d="m337 0h30v88h-30z" fill="#00fff3" data-original="#000000" style="" class=""/><path d="m390.887 62.113h88v30h-88z" transform="matrix(.707 -.707 .707 .707 72.849 330.098)" fill="#00fff3" data-original="#000000" style="" class=""/><path d="m0 337h88v30h-88z" fill="#00fff3" data-original="#000000" style="" class=""/><path d="m145 424h30v88h-30z" fill="#00fff3" data-original="#000000" style="" class=""/><path d="m33.113 419.887h88v30h-88z" transform="matrix(.707 -.707 .707 .707 -284.926 181.903)" fill="#00fff3" data-original="#000000" style="" class=""/></g></g></svg>
